# xmcd
# 
# Track frame offsets:
#     182
#     16395
#     35362
#     48492
#     65052
#     80777
#     98607
#     117545
#     132460
#     148242
# 
# Disc length: 2201
# 
# Revision: 10
# Processed by: cddbd v1.5.2PL0 Copyright (c) Steve Scherf et al.
# Submitted via: BonkEnc v1.0.15
# 
DISCID=9408970a
DTITLE=Alice Cooper - Constrictor
DYEAR=1986
DGENRE=Rock
TTITLE0=Teenage Frankenstein
TTITLE1=Give It Up
TTITLE2=Thrill My Gorilla
TTITLE3=Life And Death Of The Party
TTITLE4=Simple Disobedience
TTITLE5=The World Needs Guts
TTITLE6=Trick Bag
TTITLE7=Crawlin'
TTITLE8=The Great American Success Story
TTITLE9=He's Back (The Man Behind The Mask)
EXTD=YEAR: 1986
EXTT0=
EXTT1=
EXTT2=
EXTT3=
EXTT4=
EXTT5=
EXTT6=
EXTT7=
EXTT8=
EXTT9=The Man Behind The Mask - Theme from \nthe motion picture ---\nFridayThe 13th Part VI: Jason Lives\n
PLAYORDER=
